<?xml version="1.0" encoding="UTF-8" standalone="no"?>
<svg
   xmlns:dc="http://purl.org/dc/elements/1.1/"
   xmlns:cc="http://creativecommons.org/ns#"
   xmlns:rdf="http://www.w3.org/1999/02/22-rdf-syntax-ns#"
   xmlns:svg="http://www.w3.org/2000/svg"
   xmlns="http://www.w3.org/2000/svg"
   xmlns:sodipodi="http://sodipodi.sourceforge.net/DTD/sodipodi-0.dtd"
   xmlns:inkscape="http://www.inkscape.org/namespaces/inkscape"
   viewBox="0 0 926.22198 856.31848"
   version="1.1"
   id="svg869"
   sodipodi:docname="warningjs_logo.svg"
   inkscape:version="0.92.2pre0 (973e216, 2017-07-25)"
   width="926.22198"
   height="856.31848">
  <metadata
     id="metadata875">
    <rdf:RDF>
      <cc:Work
         rdf:about="">
        <dc:format>image/svg+xml</dc:format>
        <dc:type
           rdf:resource="http://purl.org/dc/dcmitype/StillImage" />
        <dc:title></dc:title>
      </cc:Work>
    </rdf:RDF>
  </metadata>
  <defs
     id="defs873" />
  <sodipodi:namedview
     pagecolor="#ffffff"
     bordercolor="#666666"
     borderopacity="1"
     objecttolerance="10"
     gridtolerance="10"
     guidetolerance="10"
     inkscape:pageopacity="0"
     inkscape:pageshadow="2"
     inkscape:window-width="1364"
     inkscape:window-height="735"
     id="namedview871"
     showgrid="false"
     inkscape:zoom="0.21984127"
     inkscape:cx="1243.3311"
     inkscape:cy="102.42519"
     inkscape:window-x="0"
     inkscape:window-y="32"
     inkscape:window-maximized="0"
     inkscape:current-layer="svg869"
     fit-margin-top="0"
     fit-margin-left="0"
     fit-margin-right="0"
     fit-margin-bottom="0" />
  <path
     style="fill:#f7df1e;stroke:#1a1a1a;stroke-width:49.13385773;stroke-miterlimit:4;stroke-dasharray:none;stroke-opacity:1"
     d="M 463.1111,51.643229 885.00628,831.75153 H 41.215701 Z"
     id="rect865"
     inkscape:connector-curvature="0"
     sodipodi:nodetypes="cccc"
     inkscape:export-xdpi="203.177"
     inkscape:export-ydpi="203.177" />
  <path
     d="m 490.5849,721.73421 c 7.0115,11.44816 16.1335,19.86301 32.267,19.86301 13.5534,0 22.2112,-6.77387 22.2112,-16.13352 0,-11.2161 -8.8955,-15.1887 -23.8135,-21.71393 l -8.1773,-3.50849 c -23.6035,-10.05582 -39.2839,-22.65322 -39.2839,-49.28456 0,-24.53178 18.6917,-43.20687 47.9033,-43.20687 20.7967,0 35.7479,7.23798 46.522,26.18933 l -25.4711,16.35451 c -5.608,-10.05581 -11.6582,-14.01737 -21.0509,-14.01737 -9.5808,0 -15.6529,6.0777 -15.6529,14.01737 0,9.81272 6.0777,13.78532 20.1117,19.86301 l 8.1772,3.50296 c 27.7916,11.91781 43.4831,24.06767 43.4831,51.38413 0,29.44919 -23.1338,45.5827 -54.2019,45.5827 -30.3774,0 -50.0029,-14.47597 -59.6056,-33.44941 z m -115.548,2.83442 c 5.1384,9.11654 9.8127,16.82415 21.0509,16.82415 10.7465,0 17.5259,-4.20464 17.5259,-20.55364 V 609.61735 h 32.709 v 111.6638 c 0,33.86932 -19.8574,49.28456 -48.8426,49.28456 -26.1892,0 -41.3559,-13.55325 -49.069,-29.87738 z"
     id="path867"
     inkscape:connector-curvature="0"
     style="fill:#1a1a1a;fill-opacity:1;stroke-width:0.55251753"
     inkscape:export-xdpi="203.177"
     inkscape:export-ydpi="203.177" />
  <text
     xml:space="preserve"
     style="font-style:normal;font-variant:normal;font-weight:normal;font-stretch:normal;font-size:240px;line-height:1.25;font-family:Jellee;-inkscape-font-specification:Jellee;letter-spacing:0px;word-spacing:0px;fill:#000000;fill-opacity:1;stroke:none"
     x="421.20343"
     y="372.32916"
     id="text905"><tspan
       sodipodi:role="line"
       id="tspan903"
       x="421.20343"
       y="589.04913" /></text>
  <text
     xml:space="preserve"
     style="font-style:normal;font-variant:normal;font-weight:normal;font-stretch:normal;font-size:400px;line-height:1.25;font-family:Jellee;-inkscape-font-specification:Jellee;letter-spacing:0px;word-spacing:0px;fill:#1a1a1a;fill-opacity:1;stroke:none"
     x="393.91095"
     y="561.21729"
     id="text909"
     inkscape:export-xdpi="203.177"
     inkscape:export-ydpi="203.177"><tspan
       sodipodi:role="line"
       id="tspan907"
       x="393.91095"
       y="561.21729">!</tspan></text>
</svg>
